<?xml version="1.0" encoding="utf-8"?>
<!-- Generator: Adobe Illustrator 16.0.0, SVG Export Plug-In . SVG Version: 6.00 Build 0)  -->
<!DOCTYPE svg PUBLIC "-//W3C//DTD SVG 1.1//EN" "http://www.w3.org/Graphics/SVG/1.1/DTD/svg11.dtd">
<svg version="1.1" id="Layer_1" xmlns="http://www.w3.org/2000/svg" xmlns:xlink="http://www.w3.org/1999/xlink" x="0px" y="0px"
	 width="16.211px" height="20.042px" viewBox="0 0 16.211 20.042" enable-background="new 0 0 16.211 20.042" xml:space="preserve">
<g>
	<rect x="2.393" fill="#FFFFFF" stroke="#000000" stroke-width="0.5" stroke-miterlimit="10" width="4" height="4"/>
	<rect x="6.105" fill="#FFFFFF" stroke="#000000" stroke-width="0.5" stroke-miterlimit="10" width="4" height="4"/>
	<rect x="6.105" y="4" fill="#FFFFFF" stroke="#000000" stroke-width="0.5" stroke-miterlimit="10" width="4" height="4"/>
	<rect x="10.105" y="4" fill="#FFFFFF" stroke="#000000" stroke-width="0.5" stroke-miterlimit="10" width="4" height="4"/>
</g>
<g>
	<g>
		<path d="M16.211,17.042c0,1.65-1.35,3-3,3H3c-1.65,0-3-1.35-3-3v-2.055c0-1.65,1.35-3,3-3h10.211c1.65,0,3,1.35,3,3V17.042z"/>
	</g>
	<g>
		<path fill="#FFFFFF" d="M3.402,17.213c0.246,0.125,0.624,0.252,1.013,0.252c0.42,0,0.642-0.174,0.642-0.438
			c0-0.252-0.192-0.396-0.678-0.569c-0.672-0.234-1.109-0.605-1.109-1.193c0-0.689,0.576-1.218,1.529-1.218
			c0.456,0,0.792,0.097,1.032,0.204l-0.204,0.738c-0.162-0.078-0.45-0.193-0.845-0.193c-0.396,0-0.588,0.181-0.588,0.391
			c0,0.258,0.228,0.371,0.75,0.57c0.714,0.264,1.049,0.635,1.049,1.205c0,0.678-0.521,1.253-1.631,1.253
			c-0.462,0-0.917-0.12-1.146-0.246L3.402,17.213z"/>
		<path fill="#FFFFFF" d="M7.229,14.112v1.554h1.505v-1.554h0.912v4.043H8.734v-1.691H7.229v1.691H6.312v-4.043H7.229z"/>
		<path fill="#FFFFFF" d="M10.146,14.167c0.281-0.048,0.677-0.084,1.234-0.084c0.564,0,0.966,0.107,1.235,0.324
			c0.259,0.203,0.433,0.539,0.433,0.936c0,0.396-0.133,0.73-0.373,0.959c-0.311,0.294-0.773,0.426-1.312,0.426
			c-0.12,0-0.229-0.006-0.312-0.018v1.445h-0.904V14.167z M11.051,16.001c0.078,0.019,0.174,0.024,0.307,0.024
			c0.485,0,0.785-0.246,0.785-0.66c0-0.371-0.258-0.594-0.713-0.594c-0.187,0-0.312,0.018-0.379,0.036V16.001z"/>
	</g>
</g>
</svg>
