<?xml version="1.0" encoding="utf-8"?>
<!-- Generator: Adobe Illustrator 16.0.0, SVG Export Plug-In . SVG Version: 6.00 Build 0)  -->
<!DOCTYPE svg PUBLIC "-//W3C//DTD SVG 1.1//EN" "http://www.w3.org/Graphics/SVG/1.1/DTD/svg11.dtd">
<svg version="1.1" id="Layer_1" xmlns="http://www.w3.org/2000/svg" xmlns:xlink="http://www.w3.org/1999/xlink" x="0px" y="0px"
	 width="23.082px" height="23.899px" viewBox="0 0 23.082 23.899" enable-background="new 0 0 23.082 23.899" xml:space="preserve">
<g id="gWsY1Z.tif">
	<g>
		<path fill-rule="evenodd" clip-rule="evenodd" d="M19.609,13.097c1.153,0,2.305,0,3.482,0c-0.675,4.684-3.084,8.094-7.479,9.859
			c-4.364,1.752-8.476,1.012-12.251-1.797c-0.59,0.621-1.188,1.253-1.824,1.924C1.021,19.991,0.514,16.941,0,13.86
			c3.078,0.513,6.131,1.022,9.225,1.538c-1.115,1.08-2.2,2.133-3.315,3.215c2.304,1.678,4.827,2.21,7.53,1.41
			C16.884,19.005,18.912,16.639,19.609,13.097z"/>
		<path fill-rule="evenodd" clip-rule="evenodd" d="M3.489,10.763c-1.171,0-2.322,0-3.476,0C1.094,1.12,12.249-3.245,19.705,2.72
			c0.596-0.628,1.193-1.259,1.839-1.939c0.517,3.095,1.024,6.142,1.538,9.223c-3.073-0.512-6.123-1.021-9.225-1.537
			c1.123-1.087,2.209-2.138,3.295-3.189C12.407,1.453,4.561,4.021,3.489,10.763z"/>
	</g>
</g>
</svg>
