<?xml version="1.0" encoding="utf-8"?>
<!-- Generator: Adobe Illustrator 16.0.0, SVG Export Plug-In . SVG Version: 6.00 Build 0)  -->
<!DOCTYPE svg PUBLIC "-//W3C//DTD SVG 1.1//EN" "http://www.w3.org/Graphics/SVG/1.1/DTD/svg11.dtd">
<svg version="1.1" id="Layer_1" xmlns="http://www.w3.org/2000/svg" xmlns:xlink="http://www.w3.org/1999/xlink" x="0px" y="0px"
	 width="841.89px" height="595.28px" viewBox="0 0 841.89 595.28" enable-background="new 0 0 841.89 595.28" xml:space="preserve">
<g id="ItVl3H.tif">
	<g>
		<path d="M414.293,152.513c4.934,0,9.789,0,14.723,0c0.877,0.199,1.752,0.538,2.707,0.577c15.043,0.896,29.766,4,43.615,10.028
			c52.768,22.942,82.932,63.135,89.777,120.221c2.785,23.021-1.035,45.406-9.551,67.034
			c-24.434,62.199-91.289,100.084-157.111,88.822c-33.029-5.611-60.965-20.733-83.488-45.485
			c-19.58-21.489-31.518-46.739-35.816-75.551c-0.717-4.636-1.273-9.292-1.83-13.928c0-4.915,0-9.83,0-14.744
			c0.238-1.095,0.477-2.169,0.637-3.264c0.477-4.277,0.717-8.575,1.432-12.794c5.572-32.373,20.217-59.931,44.332-82.296
			c21.729-20.156,47.355-32.433,76.645-36.811C404.98,153.627,409.676,153.11,414.293,152.513z M539.566,296.85
			c0-64.966-53.006-117.952-117.951-117.933c-64.945,0.04-117.873,53.026-117.873,117.972c0,64.926,53.006,117.912,117.951,117.912
			C486.639,414.762,539.646,361.755,539.566,296.85z"/>
		<path fill-rule="evenodd" clip-rule="evenodd" d="M407.846,255.204c0-13.491-0.08-26.961,0-40.432
			c0.08-9.61,7.402-15.879,16.475-14.347c5.254,0.896,10.107,5.751,10.904,11.043c0.238,1.691,0.238,3.442,0.318,5.154
			c0,23.718,0,47.436-0.08,71.153c0,2.348,0.637,3.999,2.309,5.67c10.744,10.586,21.41,21.251,31.994,31.995
			c7.562,7.581,5.971,18.505-3.184,22.942c-5.094,2.526-10.027,1.83-14.404-1.711c-2.547-2.03-4.775-4.418-7.004-6.706
			c-10.428-10.366-20.693-20.832-31.199-31.04c-4.457-4.298-6.367-9.093-6.209-15.241
			C407.926,280.852,407.846,268.038,407.846,255.204z"/>
	</g>
</g>
</svg>
